Coordinates
version=1
nRows=49
nColumns=12
inDegrees=yes

Units are S.I. units (second, meters, Newtons, ...)
Angles are in degrees

endheader
time	SC_y	SC_z	SC_x	AC_y	AC_z	AC_x	GH_y	GH_z	GH_yy	EL_x	PS_y
       0.0               -24.0          13.45          76.82          64.82          2.321          7.462          144.4          40.19         -135.8          29.15          93.74
  0.004812               -24.0          13.45          76.81          64.82          2.319           7.46          144.4          40.19         -135.7          29.15          93.74
  0.009623              -24.01          13.45           76.8          64.82          2.316          7.458          144.3          40.18         -135.7          29.16          93.73
   0.01443              -24.01          13.45          76.79          64.82          2.314          7.455          144.3          40.17         -135.6          29.16          93.72
   0.01925              -24.02          13.45          76.78          64.82          2.311          7.452          144.2          40.16         -135.6          29.16          93.71
   0.02406              -24.02          13.45          76.77          64.82          2.308          7.449          144.2          40.16         -135.5          29.16           93.7
   0.02887              -24.03          13.45          76.75          64.82          2.305          7.446          144.1          40.15         -135.5          29.17          93.69
   0.03368              -24.04          13.45          76.74          64.82          2.302          7.443          144.1          40.14         -135.4          29.17          93.68
   0.03849              -24.05          13.45          76.73          64.82          2.299          7.439          144.0          40.13         -135.3          29.17          93.67
    0.0433              -24.05          13.45          76.71          64.82          2.295          7.436          143.9          40.12         -135.3          29.17          93.66
   0.04812              -24.06          13.45           76.7          64.82          2.291          7.431          143.8           40.1         -135.2          29.18          93.65
   0.05293              -24.07          13.45          76.68          64.82          2.287          7.427          143.8          40.09         -135.1          29.18          93.63
   0.05774              -24.08          13.45          76.66          64.82          2.282          7.422          143.7          40.08         -135.0          29.18          93.62
   0.06255              -24.09          13.45          76.64          64.81          2.277          7.417          143.6          40.06         -134.9          29.19           93.6
   0.06736               -24.1          13.45          76.62          64.81          2.272          7.412          143.5          40.05         -134.8          29.19          93.59
   0.07217              -24.12          13.45           76.6          64.81          2.266          7.406          143.4          40.03         -134.7           29.2          93.57
   0.07699              -24.13          13.45          76.57          64.81           2.26          7.399          143.2          40.01         -134.6           29.2          93.55
    0.0818              -24.15          13.45          76.54          64.81          2.253          7.392          143.1          39.99         -134.5          29.21          93.52
   0.08661              -24.16          13.45          76.51          64.81          2.246          7.384          143.0          39.97         -134.3          29.21           93.5
   0.09142              -24.18          13.45          76.48          64.81          2.238          7.376          142.8          39.94         -134.2          29.22          93.47
   0.09623               -24.2          13.45          76.45          64.81          2.229          7.366          142.6          39.91         -134.0          29.23          93.44
     0.101              -24.22          13.45          76.41          64.81          2.219          7.356          142.4          39.88         -133.8          29.24          93.41
    0.1059              -24.25          13.45          76.36          64.81          2.208          7.345          142.2          39.85         -133.6          29.25          93.37
    0.1107              -24.27          13.45          76.31          64.81          2.196          7.332          142.0          39.81         -133.3          29.26          93.34
    0.1155               -24.3          13.45          76.26           64.8          2.182          7.318          141.7          39.77         -133.1          29.27          93.29
    0.1203              -24.34          13.45           76.2           64.8          2.167          7.302          141.4          39.73         -132.8          29.28          93.24
    0.1251              -24.37          13.45          76.13           64.8           2.15          7.285          141.1          39.68         -132.5          29.29          93.19
    0.1299              -24.42          13.45          76.06           64.8          2.131          7.265          140.8          39.62         -132.1          29.31          93.13
    0.1347              -24.46          13.45          75.97           64.8           2.11          7.243          140.3          39.55         -131.7          29.33          93.06
    0.1395              -24.52          13.45          75.87          64.79          2.086          7.218          139.9          39.48         -131.2          29.35          92.98
    0.1443              -24.58          13.45          75.76          64.79          2.058          7.189          139.3           39.4         -130.7          29.37          92.89
    0.1492              -24.65          13.45          75.64          64.79          2.026          7.156          138.7           39.3         -130.1           29.4          92.78
     0.154              -24.73          13.45          75.49          64.78          1.989          7.117          138.0          39.19         -129.4          29.43          92.66
    0.1588              -24.82          13.46          75.32          64.78          1.947          7.073          137.2          39.06         -128.5          29.46          92.52
    0.1636              -24.93          13.46          75.12          64.77          1.897          7.021          136.2          38.91         -127.6           29.5          92.36
    0.1684              -25.06          13.46          74.88          64.77          1.838           6.96          135.1          38.73         -126.4          29.55          92.17
    0.1732              -25.22          13.46           74.6          64.76          1.768          6.887          133.7          38.52         -125.1          29.61          91.94
     0.178               -25.4          13.46          74.27          64.75          1.684          6.799          132.1          38.26         -123.5          29.68          91.66
    0.1828              -25.62          13.46          73.86          64.74          1.583          6.694          130.1          37.95         -121.5          29.76          91.33
    0.1877               -25.9          13.47          73.36          64.73          1.459          6.565          127.7          37.58         -119.1          29.87          90.93
    0.1925              -26.24          13.47          72.75          64.71          1.306          6.406          124.8          37.11         -116.1          29.99          90.43
    0.1973              -26.66          13.48          71.99          64.69          1.115          6.207          121.1          36.53         -112.4          30.15           89.8
    0.2021              -27.19          13.48          71.02          64.67         0.8748          5.957          116.4           35.8         -107.8          30.35          89.02
    0.2069              -27.86          13.49           69.8          64.64         0.5693          5.639          110.5          34.88         -101.9           30.6          88.02
    0.2117              -28.72           13.5          68.23          64.59         0.1783          5.232          103.0          33.69         -94.34          30.93          86.74
    0.2165              -29.83          13.51          66.22          64.54        -0.3234          4.709          93.25          32.17         -84.63          31.34           85.1
    0.2213              -31.24          13.53          63.66          64.47        -0.9642          4.042          80.85          30.22         -72.24          31.87          83.01
    0.2261              -33.02          13.55          60.43          64.39          -1.77          3.203          65.26          27.77         -56.66          32.54          80.38
     0.231              -35.18          13.58           56.5          64.29         -2.752          2.181          46.26          24.79         -37.67          33.35          77.17
